<svg width="24" height="24" viewBox="0 0 24 24" fill="none" xmlns="http://www.w3.org/2000/svg">
<path d="M20.8907 2.006L20.9967 2L21.1267 2.008L21.2167 2.024L21.3397 2.059L21.4467 2.105L21.5467 2.162L21.6367 2.229L21.7187 2.304L21.7707 2.363L21.8527 2.479L21.9047 2.575C21.9514 2.675 21.9814 2.78033 21.9947 2.891L21.9997 2.997C21.9997 3.07233 21.9917 3.14567 21.9757 3.217L21.9407 3.34L15.4087 21.417C15.2849 21.6866 15.0863 21.9149 14.8365 22.075C14.5868 22.2351 14.2963 22.3201 13.9997 22.32C13.7326 22.3206 13.4699 22.2521 13.237 22.1212C13.0041 21.9903 12.8091 21.8015 12.6707 21.573L12.6057 21.446L9.25369 14.744L2.58369 11.408C2.33689 11.2951 2.12405 11.1194 1.96646 10.8985C1.80887 10.6775 1.71205 10.4191 1.68569 10.149L1.67969 10C1.67969 9.44 1.98069 8.928 2.52069 8.63L2.66069 8.56L20.6777 2.054L20.7837 2.024L20.8907 2.006Z" fill="white"/>
</svg>
