<svg width="19" height="19" viewBox="0 0 19 19" fill="none" xmlns="http://www.w3.org/2000/svg">
<path d="M9.50033 1.58398C6.01699 1.58398 3.16699 4.43398 3.16699 7.91732C3.16699 12.1923 8.70866 17.0215 8.94616 17.259C9.10449 17.3382 9.34199 17.4173 9.50033 17.4173C9.65866 17.4173 9.89616 17.3382 10.0545 17.259C10.292 17.0215 15.8337 12.1923 15.8337 7.91732C15.8337 4.43398 12.9837 1.58398 9.50033 1.58398ZM9.50033 15.5965C7.83783 14.0132 4.75033 10.609 4.75033 7.91732C4.75033 5.30482 6.88783 3.16732 9.50033 3.16732C12.1128 3.16732 14.2503 5.30482 14.2503 7.91732C14.2503 10.5298 11.1628 14.0132 9.50033 15.5965ZM9.50033 4.75065C7.75866 4.75065 6.33366 6.17565 6.33366 7.91732C6.33366 9.65898 7.75866 11.084 9.50033 11.084C11.242 11.084 12.667 9.65898 12.667 7.91732C12.667 6.17565 11.242 4.75065 9.50033 4.75065ZM9.50033 9.50065C8.62949 9.50065 7.91699 8.78815 7.91699 7.91732C7.91699 7.04648 8.62949 6.33398 9.50033 6.33398C10.3712 6.33398 11.0837 7.04648 11.0837 7.91732C11.0837 8.78815 10.3712 9.50065 9.50033 9.50065Z" fill="white"/>
</svg>
